<svg width="48" height="49" viewBox="0 0 48 49" fill="none" xmlns="http://www.w3.org/2000/svg">
<path d="M47.9966 24.5409C47.9966 36.6624 39.0118 46.6835 27.3397 48.3097C26.2483 48.461 25.1317 48.54 23.9983 48.54C22.69 48.54 21.4053 48.4358 20.1541 48.234C8.72758 46.3942 0 36.4858 0 24.5409C0 11.2859 10.7455 0.540039 24 0.540039C37.2545 0.540039 48 11.2859 48 24.5409H47.9966Z" fill="#84F7A0" fill-opacity="0.1"/>
<path d="M47.7487 24.2909H47.7466V24.5409C47.7466 36.5359 38.8555 46.4528 27.3053 48.062C26.2252 48.2118 25.1201 48.29 23.9983 48.29C22.7033 48.29 21.4319 48.1868 20.194 47.9872L20.1939 47.9872C8.88657 46.1666 0.25 36.3611 0.25 24.5409C0.25 11.424 10.8836 0.790039 24 0.790039C37.033 0.790039 47.6146 11.2891 47.7487 24.2909Z" stroke="#878787" stroke-opacity="0.3" stroke-width="0.5"/>
<path d="M25.6737 20.1453V22.4011H28.4641L28.0222 25.4397H25.6737V32.4406C25.2028 32.5059 24.721 32.54 24.232 32.54C23.6676 32.54 23.1133 32.4951 22.5735 32.408V25.4397H20V22.4011H22.5735V19.6411C22.5735 17.9288 23.9614 16.54 25.6744 16.54V16.5415C25.6795 16.5415 25.6838 16.54 25.6889 16.54H28.4648V19.168H26.651C26.1119 19.168 25.6744 19.6055 25.6744 20.1446L25.6737 20.1453Z" fill="#C4C4C4"/>
</svg>
