<svg width="465" height="115" viewBox="0 0 465 115" fill="none" xmlns="http://www.w3.org/2000/svg">
<path d="M53.8001 0V14C53.8001 21.72 47.5201 28.4 39.8001 28.4H14.6001C6.8801 28.4 0.600098 21.72 0.600098 14V0H13.2401V14C13.2401 16.2 15.0401 18 17.2401 18H37.1601C39.3601 18 41.1601 16.2 41.1601 14V0H53.8001Z" fill="white"/>
<path d="M57.0063 28V0H69.6463L97.5663 16V0H110.206V28H97.5663L69.6463 12V28H57.0063Z" fill="white"/>
<path d="M113.413 28V0H130.293L145.853 19.2L161.413 0H178.933V28H166.293V11.56L152.973 28H138.733L126.053 12.36V28H113.413Z" fill="white"/>
<path d="M210.322 8.8L204.482 16H216.162L210.322 8.8ZM203.202 0H217.442L240.122 28H225.882L222.642 24H198.002L194.762 28H180.522L203.202 0Z" fill="white"/>
<path d="M241.733 28V0H254.373L282.293 16V0H294.933V28H282.293L254.373 12V28H241.733Z" fill="white"/>
<path d="M298.139 28V0H310.779L338.699 16V0H351.339V28H338.699L310.779 12V28H298.139Z" fill="white"/>
<path d="M354.545 28V0H406.545V7.2H367.185V10.4H406.545V17.6H367.185V20.8H406.545V28H354.545Z" fill="white"/>
<path d="M450.141 28H409.741V0H450.141C457.861 0 464.141 6.28 464.141 14C464.141 21.72 457.861 28 450.141 28ZM422.341 10V18H447.341C449.821 18 451.541 16.32 451.541 14C451.541 11.68 449.821 10 447.341 10H422.341Z" fill="white"/>
<path d="M9.3201 59C3.8801 59 0.600098 55.8 0.600098 51.2C0.600098 46.6 3.8801 43 9.3201 43H52.6001V52.6H14.5601C13.6001 52.6 13.2401 53.32 13.2401 53.8C13.2401 54.28 13.6001 55 14.5601 55H45.4801C50.9201 55 54.2001 58.2 54.2001 62.8C54.2001 67.4 50.9201 71 45.4801 71H2.2001V61.4H40.2401C41.2001 61.4 41.5601 60.68 41.5601 60.2C41.5601 59.72 41.2001 59 40.2401 59H9.3201Z" fill="white"/>
<path d="M78.8848 71V61.4L55.4048 43H72.0848L85.2048 53.32L98.3248 43H115.005L91.5248 61.4V71H78.8848Z" fill="white"/>
<path d="M122.953 59C117.513 59 114.233 55.8 114.233 51.2C114.233 46.6 117.513 43 122.953 43H166.233V52.6H128.193C127.233 52.6 126.873 53.32 126.873 53.8C126.873 54.28 127.233 55 128.193 55H159.113C164.553 55 167.833 58.2 167.833 62.8C167.833 67.4 164.553 71 159.113 71H115.833V61.4H153.873C154.833 61.4 155.193 60.68 155.193 60.2C155.193 59.72 154.833 59 153.873 59H122.953Z" fill="white"/>
<path d="M189.278 71V52.6H169.038V43H222.238V52.6H201.918V71H189.278Z" fill="white"/>
<path d="M225.444 71V43H277.444V50.2H238.084V53.4H277.444V60.6H238.084V63.8H277.444V71H225.444Z" fill="white"/>
<path d="M280.639 71V43H297.519L313.079 62.2L328.639 43H346.159V71H333.519V54.56L320.199 71H305.959L293.279 55.36V71H280.639Z" fill="white"/>
<path d="M357.289 59C351.849 59 348.569 55.8 348.569 51.2C348.569 46.6 351.849 43 357.289 43H400.569V52.6H362.529C361.569 52.6 361.209 53.32 361.209 53.8C361.209 54.28 361.569 55 362.529 55H393.449C398.889 55 402.169 58.2 402.169 62.8C402.169 67.4 398.889 71 393.449 71H350.169V61.4H388.209C389.169 61.4 389.529 60.68 389.529 60.2C389.529 59.72 389.169 59 388.209 59H357.289Z" fill="white"/>
<path d="M0.600098 114V86H52.6001V93.2H13.2401V96.4H51.0001V103.6H13.2401V114H0.600098Z" fill="white"/>
<path d="M67.8032 85.6H97.0032C104.723 85.6 111.003 92.28 111.003 100C111.003 107.72 104.723 114.4 97.0032 114.4H67.8032C60.0832 114.4 53.8032 107.72 53.8032 100C53.8032 92.28 60.0832 85.6 67.8032 85.6ZM94.4032 96H70.4032C68.2032 96 66.4032 97.8 66.4032 100C66.4032 102.2 68.2032 104 70.4032 104H94.4032C96.6032 104 98.4032 102.2 98.4032 100C98.4032 97.8 96.6032 96 94.4032 96Z" fill="white"/>
<path d="M152.213 95.6H126.053V98.8H152.213C153.333 98.8 153.973 98.2 153.973 97.2C153.973 96.2 153.333 95.6 152.213 95.6ZM126.053 114H113.413V86H155.413C162.413 86 166.613 91.6 166.613 97.2C166.613 102.04 163.453 106.88 158.093 108.12L166.613 114H150.293L142.173 108.4H126.053V114Z" fill="white"/>
<path d="M220.608 103.6V114H182.608C174.888 114 168.608 107.72 168.608 100C168.608 92.28 174.888 86 182.608 86H220.608V96.4H185.208C183.008 96.4 181.208 97.8 181.208 100C181.208 102.2 183.008 103.6 185.208 103.6H220.608Z" fill="white"/>
<path d="M223.803 114V86H275.803V93.2H236.443V96.4H275.803V103.6H236.443V106.8H275.803V114H223.803Z" fill="white"/>
<path d="M286.937 102C281.497 102 278.217 98.8 278.217 94.2C278.217 89.6 281.497 86 286.937 86H330.217V95.6H292.177C291.217 95.6 290.857 96.32 290.857 96.8C290.857 97.28 291.217 98 292.177 98H323.097C328.537 98 331.817 101.2 331.817 105.8C331.817 110.4 328.537 114 323.097 114H279.817V104.4H317.857C318.817 104.4 319.177 103.68 319.177 103.2C319.177 102.72 318.817 102 317.857 102H286.937Z" fill="white"/>
</svg>
