<svg width="635" height="121" viewBox="0 0 635 121" fill="none" xmlns="http://www.w3.org/2000/svg">
<path fill-rule="evenodd" clip-rule="evenodd" d="M54.7697 5.04608V9.55219H33.8468C22.2768 9.55219 12.4389 9.82948 11.9539 10.1068C11.3304 10.5227 11.1225 12.4638 11.2611 17.2471L11.4689 23.7636L33.5696 23.9716L55.6704 24.1102L55.2547 26.398C55.0468 27.6458 54.4233 29.8642 53.7997 31.32L52.6913 33.8849L29.3435 33.677C3.91727 33.3997 2.94733 33.261 1.00746 29.5868C-0.239605 27.0219 -0.378165 7.74974 0.868897 4.97678C1.35387 3.86759 2.94733 2.55043 4.54079 1.85719C7.03492 0.67868 9.52905 0.540039 31.0755 0.540039H54.7697V5.04608ZM70.7044 11.2852C70.7044 17.1778 70.9815 22.0305 71.3279 22.0305C71.6743 22.0305 80.0574 17.1778 89.9646 11.2852L107.978 0.540039H113.589H119.201L119.063 16.9698L118.855 33.469H113.659H108.463L108.255 22.5158C108.186 16.5539 107.978 11.6319 107.77 11.6319C107.631 11.6319 99.1097 16.6232 88.8561 22.7237L70.1501 33.8849L65.0926 33.677L59.9658 33.469L59.7579 17.8711C59.6887 9.34422 59.7579 1.92655 59.8965 1.44128C60.1736 0.817368 61.9056 0.540039 65.5083 0.540039H70.7044V11.2852ZM183.494 16.9698L183.286 33.469H178.09H172.894L172.548 21.6839L172.201 9.89879L157.237 9.6908L142.272 9.55219L141.856 16.2766C141.233 26.9525 138.946 31.6666 133.82 33.1224C130.356 34.0929 126.337 33.9543 125.644 32.9144C124.744 31.4586 122.804 24.8728 123.22 24.4568C123.427 24.2489 124.952 24.1102 126.614 24.1102C130.633 24.1102 130.979 23.0704 130.979 11.008C130.979 5.73933 131.187 1.23329 131.464 1.02531C131.672 0.748016 143.519 0.540039 157.791 0.540039H183.633L183.494 16.9698ZM200.26 11.2852C200.26 17.1778 200.468 22.0305 200.815 22.0305C201.092 22.0305 209.405 17.1778 219.313 11.2852L237.326 0.540039L242.868 0.678719L248.411 0.886635V17.1778V33.469L243.492 33.677C240.028 33.8156 238.365 33.6077 237.811 32.9144C237.326 32.3598 236.91 28.0617 236.841 21.8918L236.633 11.7705L218.066 22.7931L199.498 33.8849L194.51 33.677L189.522 33.469L189.314 16.9698L189.175 0.540039H194.718H200.26V11.2852ZM54.7004 45.0461C54.7004 45.5314 54.1462 47.4724 53.5226 49.4135L52.3448 52.8798L31.4219 53.0877L10.4297 53.2264V54.9595V56.6925H29.8977C51.7906 56.6925 53.3841 56.9699 55.1854 61.268C56.4324 64.2489 56.4324 69.2402 55.1854 72.2905C53.3148 76.7272 52.7605 76.7966 25.3252 76.7966H0.730321V60.5054V44.2142H27.75C48.9501 44.2142 54.7697 44.4222 54.7004 45.0461ZM113.243 46.0859C112.966 47.1951 112.412 49.1362 111.927 50.4534L111.095 52.8798L90.5188 53.0877L70.0116 53.2264V54.9595V56.6925H85.9463H101.881V60.5054V64.3182H85.9463H70.0116V66.0513V67.7844L91.3502 67.923L112.62 68.131L112.827 72.4291L113.035 76.7966H86.6391H60.3122V60.5054V44.2142H86.9855H113.659L113.243 46.0859ZM165.62 45.4621C169.638 47.4725 170.954 54.8208 168.045 58.9803C167.144 60.2281 167.144 60.5747 168.183 61.6839C169.569 63.209 170.192 69.5175 169.153 72.0825C168.737 73.1917 167.421 74.6475 166.174 75.41C164.026 76.7272 162.641 76.7966 140.055 76.7966H116.291L116.638 74.7862C116.915 73.6076 117.538 71.5972 118.093 70.28L119.132 67.7844H139.224C150.516 67.7844 159.454 67.5071 159.661 67.1605C159.939 66.8138 159.869 66.0513 159.661 65.4274C159.315 64.4569 157.306 64.3182 144.42 64.3182H129.593V60.5054V56.6925L144.35 56.5539L144.378 56.5535C158.969 56.346 159.038 56.345 159.246 54.8208L159.454 53.2264L138.808 53.0877L118.162 52.8798L117.954 49.4828C117.816 47.6111 117.885 45.67 118.093 45.1848C118.37 44.3529 122.457 44.2142 140.817 44.2142C160.701 44.2142 163.472 44.3529 165.62 45.4621ZM231.783 60.5054V76.4499H226.241H220.698L220.49 64.8034L220.352 53.2264L202.824 53.365L185.365 53.573L185.157 65.1501L185.018 76.7966H179.476H173.933V60.5054V44.2142L202.893 44.3529L231.783 44.5609V60.5054ZM248.064 60.5054V76.8659L242.73 76.6579L237.326 76.4499L237.118 61.1987C237.049 52.8104 237.118 45.6007 237.256 45.1155C237.534 44.4915 239.266 44.2142 242.868 44.2142H248.064V60.5054ZM312.496 60.5054V76.7966H306.953H301.411V65.0114V53.2264L286.377 53.365L271.274 53.573L270.858 60.5054C270.373 68.4083 268.987 72.4985 265.939 75.0634C264.207 76.5193 263.168 76.7966 259.219 76.7966H254.507L253.33 72.7757C252.706 70.5574 252.221 68.547 252.221 68.2697C252.221 67.9924 253.607 67.7844 255.339 67.7844C259.634 67.7844 259.981 66.7446 260.396 54.4742L260.743 44.2142H286.585H312.496V60.5054ZM376.304 46.8485L378.313 49.0669V60.3667C378.313 61.2178 378.317 62.0249 378.321 62.7903C378.349 68.3837 378.365 71.7501 376.725 73.7738C374.246 76.833 367.981 76.8238 352.245 76.8009C350.807 76.7988 349.291 76.7966 347.691 76.7966C326.421 76.7966 323.65 76.6579 321.502 75.5487C318.177 73.8849 317.415 71.2506 317.415 60.644C317.346 50.4534 318.108 47.7498 321.641 45.6007C323.858 44.2142 324.828 44.2142 349.076 44.3529L374.295 44.5609L376.304 46.8485ZM440.597 45.0461C440.597 45.5314 440.043 47.4724 439.35 49.4135L438.103 52.8798L426.949 53.0877L415.725 53.2264V65.0114V76.7966H410.182H404.64V65.0114V53.2264H392.862H381.084V48.7203V44.2142H410.875C434.292 44.2142 440.666 44.4222 440.597 45.0461ZM454.384 50.3148L454.592 55.9993L472.051 55.8607L489.509 55.6527L489.717 49.8988L489.925 44.2142H495.398H500.941V60.5054V76.7966H495.398H489.925L489.717 71.0426L489.509 65.3581L472.051 65.1501L454.592 65.0114L454.384 70.696L454.176 76.4499H448.634H443.091L442.883 61.1987C442.814 52.8104 442.883 45.6007 443.091 45.0461C443.299 44.4222 444.823 44.2142 448.772 44.3529L454.176 44.5609L454.384 50.3148ZM517.568 55.0288C517.568 60.9907 517.846 65.7047 518.123 65.566C518.469 65.4274 526.714 60.5747 536.413 54.7515L554.08 44.2142H559.691H565.372V60.5054V76.7966H559.83H554.287V66.0513C554.287 60.1587 554.149 55.3061 553.941 55.3061C553.733 55.3061 545.489 60.1587 535.581 66.0513L517.638 76.7966H512.095H506.483V60.5054V44.2142H512.026H517.568V55.0288ZM595.648 47.7498L602.161 51.2159L608.673 47.6805L615.255 44.1449L625.093 44.3529L635 44.5609L624.123 50.1068C618.095 53.157 613.176 55.7914 613.176 55.9993C613.176 56.2073 617.888 58.703 623.569 61.5452L633.961 66.6753V71.7359C633.961 74.5088 633.822 76.7966 633.614 76.7966C633.44 76.7966 628.401 74.3138 621.717 71.021L621.714 71.0194C620.423 70.3832 619.07 69.7168 617.68 69.0323L602.091 61.1987L586.434 69.0323C577.843 73.3304 570.568 76.6579 570.153 76.4499C569.806 76.1726 569.529 74.0236 569.529 71.5279V67.0912L580.268 61.7532C586.157 58.7723 591.006 56.2073 591.006 55.9993C591.006 55.7914 586.295 53.2957 580.545 50.4534C574.795 47.6111 569.945 45.0461 569.806 44.6995C569.599 44.4222 573.894 44.2142 579.298 44.2142H589.136L595.648 47.7498ZM54.4233 92.0478V96.5539L32.9461 96.9005L11.4689 97.2471L11.2611 103.764C11.1225 108.547 11.3304 110.488 11.9539 110.904C12.4389 111.181 22.4154 111.459 34.1932 111.459C49.1579 111.459 55.4625 111.667 55.4625 112.221C55.4625 112.637 54.9776 114.647 54.354 116.727L53.3148 120.471H30.1056C28.6408 120.471 27.2472 120.472 25.9214 120.474C10.3269 120.494 4.10134 120.502 1.63028 117.46C-0.0117127 115.439 0.00407481 112.071 0.0303529 106.465C0.0338435 105.72 0.0375192 104.936 0.0375192 104.11V104.11C0.0375192 93.0877 0.0375192 92.8104 1.76954 90.7307C2.94732 89.4135 4.61008 88.443 6.48067 87.9577C8.07414 87.6111 19.5055 87.4031 31.9069 87.4725L54.4233 87.5418V92.0478ZM70.5658 97.5938C70.6351 103.14 70.8429 107.992 71.0508 108.478C71.1893 108.963 78.3946 105.081 89.8953 98.2177L108.463 87.1952L113.659 87.3338L118.855 87.5418L119.063 103.972L119.201 120.471H113.659H108.116V109.725C108.116 103.417 107.839 98.9802 107.493 98.9802C107.077 98.9802 98.694 103.833 88.7175 109.725L70.6351 120.54L65.3004 120.332L59.9658 120.124L59.7579 104.526C59.6887 95.9993 59.7579 88.5816 59.9658 88.0271C60.1736 87.4031 61.6285 87.1951 65.3004 87.3338L70.358 87.5418L70.5658 97.5938ZM177.259 92.1865L177.467 96.9005L156.475 97.0391L135.482 97.2471L135.275 103.348C135.136 107.299 135.344 109.864 135.898 110.488C136.522 111.251 140.678 111.459 158.484 111.459C175.665 111.459 180.238 111.667 180.03 112.29C179.822 112.776 179.13 114.855 178.506 116.797L177.259 120.471H154.673C140.886 120.471 130.979 120.193 129.386 119.708C124.813 118.46 124.051 116.311 124.051 104.388C124.051 93.2957 124.467 91.3546 127.169 89.5522C130.286 87.5418 132.919 87.3338 155.227 87.4031L177.051 87.5418L177.259 92.1865ZM239.958 87.6111C240.443 88.0964 238.504 94.8208 237.534 95.9993C236.979 96.6925 233.862 96.9005 226.171 96.9005H215.502L215.364 108.478L215.156 120.124L209.821 120.332L204.417 120.54V108.686V96.9005H192.639H180.862V92.5331C180.862 90.1068 181.069 87.8884 181.347 87.6804C181.901 87.0565 239.335 87.0565 239.958 87.6111ZM295.453 87.8191C295.661 88.1657 295.245 90.1067 294.552 92.1171L293.305 95.8607L272.936 96.2073L252.568 96.5539V98.287V100.02L268.364 100.228L284.091 100.367V104.18V107.992H268.156H252.221V109.725V111.459H273.698H295.176V115.965V120.471H268.849H242.522V104.318C242.522 95.3754 242.73 87.8884 243.007 87.6804C243.7 86.9872 295.037 87.1258 295.453 87.8191ZM322.542 94.8208C329.123 98.9802 334.804 102.446 335.22 102.446C335.636 102.446 341.317 98.9802 347.899 94.8208L359.884 87.1258L365.08 87.3338L370.346 87.5418L370.554 103.972L370.692 120.471H365.15H359.607V109.656C359.607 99.6735 359.538 98.8416 358.429 99.2575C357.737 99.5348 352.333 102.862 346.305 106.675C340.347 110.419 335.22 113.538 334.943 113.538C334.666 113.538 329.262 110.28 322.888 106.259C316.583 102.238 311.18 98.9802 310.902 98.9802C310.625 98.9802 310.417 103.833 310.417 109.725V120.471H304.875H299.332V104.318C299.332 95.3754 299.54 87.8884 299.817 87.6804C300.025 87.4031 302.589 87.1952 305.429 87.1952H310.625L322.542 94.8208ZM10.4297 66.0512V67.7843H28.0964H45.7632V66.0512V64.3181H28.0964H10.4297V66.0512ZM329.331 66.6056C328.223 65.1498 328.153 56.4843 329.123 54.5432C329.816 53.2261 330.647 53.2261 348.383 53.3647L366.882 53.5727V60.5051V67.4375L348.522 67.6455C331.895 67.7841 330.093 67.7148 329.331 66.6056Z" fill="white"/>
</svg>
