<svg width="41" height="41" viewBox="0 0 41 41" fill="none" xmlns="http://www.w3.org/2000/svg">
<path d="M20.6889 8.16268V0.540039H20.3115V7.93627C20.4625 8.01174 20.6134 8.08721 20.6889 8.16268ZM20.5002 1.18155C20.4625 1.14381 20.387 1.14381 20.3493 1.10608C20.387 1.06834 20.387 0.992869 20.4247 0.955133C20.4625 0.992869 20.5379 0.992869 20.5757 1.03061C20.5379 1.06834 20.5379 1.14381 20.5002 1.18155Z" fill="#42795C"/>
<path d="M7.93396 20.3889C7.89623 20.5776 7.78302 20.5776 7.70755 20.6908C7.5566 20.6154 7.59434 20.4267 7.70755 20.3512H6.53774C6.57547 20.3889 6.57547 20.4644 6.65094 20.5022C6.61321 20.5399 6.53774 20.5399 6.5 20.6154C6.42453 20.5776 6.46226 20.5022 6.38679 20.4644C6.42453 20.4267 6.5 20.4267 6.53774 20.3512H4.5C4.46226 20.3512 4.42453 20.3512 4.42453 20.3512C4.5 20.3889 4.61321 20.4644 4.5 20.5776C4.42453 20.6531 4.23585 20.5399 4.23585 20.4644C4.23585 20.4267 4.27358 20.3889 4.27358 20.3889C4.23585 20.3889 4.16038 20.3889 4.12264 20.3889H0.5V20.4267V20.7663H2.16038C2.16038 20.7286 2.19811 20.6908 2.19811 20.6531C2.23585 20.6908 2.31132 20.6908 2.34906 20.7286V20.7663H4.04717H9.10377C9.14151 20.6908 9.21698 20.5776 9.29245 20.5776C9.33019 20.6154 9.36792 20.6908 9.40566 20.7663H14.2736C14.2736 20.7663 14.2736 20.7663 14.2736 20.7286C14.3113 20.7286 14.3113 20.7286 14.3491 20.7663H16.6509C16.6509 20.7663 16.6509 20.7663 16.6509 20.7286C16.6509 20.7286 16.6887 20.7286 16.6887 20.7663H20.2736V23.521H20.3113C20.3113 23.5588 20.2736 23.5588 20.2736 23.5965V25.3701C20.3113 25.4078 20.3113 25.4833 20.3868 25.521C20.3491 25.5588 20.3113 25.5588 20.2736 25.5965V30.9173C20.3491 30.955 20.3113 31.0682 20.4245 31.1814C20.3868 31.2569 20.3113 31.2946 20.2736 31.2946V33.7852L20.3113 33.7474C20.3868 33.7852 20.3491 33.8606 20.4245 33.8984C20.3868 33.9739 20.3113 33.9361 20.2736 34.0116V35.9739C20.2736 35.9739 20.3113 35.9739 20.3113 35.9361C20.4245 36.0116 20.3868 36.1625 20.5 36.238C20.4245 36.3135 20.3491 36.3135 20.2736 36.3512V38.0493C20.4245 38.0493 20.5377 38.3512 20.6509 38.389C20.6132 38.6531 20.3868 38.4644 20.3113 38.6531L20.2736 38.6154V40.5776H20.6509V39.521C20.6132 39.4078 20.5755 39.2946 20.5 39.1814C20.4623 39.1814 20.4623 39.1437 20.4623 39.1437L20.4245 39.1059C20.3868 39.0305 20.4245 38.9173 20.5 38.804C20.5755 38.8418 20.6132 38.8418 20.6509 38.8795V31.1059C20.6132 31.1059 20.6132 31.1437 20.5755 31.1814C20.5 31.1437 20.5377 31.0682 20.4623 31.0305C20.5 30.955 20.5755 30.9927 20.6132 30.9173C20.6132 30.9173 20.6132 30.9172 20.6509 30.955V21.7852C20.6132 21.7852 20.5755 21.8229 20.5755 21.8606C20.5 21.7852 20.4623 21.672 20.5377 21.521C20.6132 21.5588 20.6509 21.5965 20.6887 21.6342V20.6908H21.934C21.9717 20.6908 22.0094 20.6908 22.0472 20.6908H25.1792C25.1038 20.6531 25.0283 20.6154 24.9528 20.5776C24.9906 20.5399 24.9906 20.4644 25.0283 20.4267C25.1038 20.4644 25.1792 20.5022 25.2925 20.5399C25.2547 20.5776 25.2547 20.6531 25.217 20.6908H26.3491C26.4245 20.6154 26.5 20.5022 26.5377 20.5022C26.6132 20.5776 26.6509 20.6154 26.6509 20.6908H32.8019C32.7642 20.5776 32.8019 20.4267 32.9528 20.3889C33.1415 20.4267 33.1415 20.5776 33.1038 20.6908H40.5V20.3135H33.8585C33.783 20.3889 33.6698 20.4644 33.5943 20.5776C33.3679 20.5399 33.3302 20.4267 33.3679 20.3135H20.6887V8.46442C20.6132 8.42668 20.4623 8.38895 20.3113 8.31348V20.3512H18.6887C18.7264 20.3889 18.8019 20.4267 18.8019 20.5022C18.6132 20.8795 18.1981 20.6908 18.1226 20.3889L18.1604 20.3512H14.4623C14.4623 20.3889 14.4623 20.4267 14.4623 20.5022C14.3868 20.6531 14.2736 20.4644 14.2736 20.3512H7.85849C7.89623 20.3512 7.93396 20.3512 7.93396 20.3889ZM9.74528 20.3889C9.82076 20.4267 9.78302 20.5022 9.85849 20.5399C9.82076 20.6154 9.74528 20.5776 9.70755 20.6531C9.63208 20.6154 9.66981 20.5399 9.59434 20.5022C9.63208 20.4267 9.70755 20.4644 9.74528 20.3889Z" fill="#42795C"/>
<path d="M33.142 20.4262C33.1043 18.6149 32.6892 16.9168 31.9722 15.3696C31.9345 15.4451 31.859 15.4828 31.8213 15.5206C31.5194 15.4451 31.6326 15.1432 31.8213 15.03C31.7835 14.9923 31.7835 14.9545 31.7458 14.9168C31.6703 14.9168 31.5571 14.8413 31.5571 14.7659C31.5571 14.6904 31.5948 14.6904 31.6326 14.6527C30.6892 12.9168 29.3684 11.4074 27.7835 10.2753C27.6703 10.313 27.5571 10.3508 27.4439 10.4262C27.293 10.313 27.293 10.1244 27.3307 9.93568C27.1797 9.82247 26.9911 9.70926 26.8401 9.63379C26.8779 9.67152 26.9156 9.70926 26.9533 9.78473C26.9156 9.93568 26.8401 9.97341 26.7646 10.0489C27.2175 10.313 27.6326 10.6149 28.0477 10.9545L28.0854 10.9923C28.1609 11.03 28.1986 11.1055 28.2741 11.1432C28.3873 11.1055 28.5382 11.2187 28.5005 11.3319C29.2552 11.9734 29.9345 12.7281 30.5005 13.5583C30.576 13.4828 30.6892 13.5583 30.8024 13.5961C30.7647 13.6715 30.6892 13.6338 30.6514 13.7093C30.6514 13.7093 30.6514 13.7093 30.6137 13.7093C31.9345 15.6338 32.7269 17.9734 32.7646 20.5017C32.8401 20.3885 32.9911 20.3508 33.142 20.4262ZM31.8967 16.1244C32.0099 15.8979 32.3873 16.1244 32.1986 16.3508C32.0099 16.313 32.0099 16.1998 31.8967 16.1244Z" fill="#F5F5F5"/>
<path d="M25.4814 32.4267C27.8965 31.3701 29.8965 29.5965 31.255 27.3701C31.1796 27.2946 31.1418 27.2191 31.1796 27.0682C31.255 27.1059 31.2928 27.1436 31.3682 27.1814C32.0852 25.9361 32.6135 24.5399 32.9154 23.0682C32.7645 23.0682 32.6513 23.0304 32.538 22.955C32.0852 25.2946 31.0286 27.4078 29.4814 29.1059C29.4814 29.1059 29.4814 29.1059 29.4814 29.1436C29.4437 29.1814 29.406 29.1814 29.3682 29.2191C27.5569 31.1436 25.1418 32.5021 22.4248 32.9927C22.4626 33.0682 22.5003 33.1436 22.4248 33.2569C22.1984 33.1436 22.1984 33.3323 22.0852 33.1059C22.0852 33.0682 22.0852 33.0682 22.123 33.0304C21.5192 33.1059 20.9154 33.1436 20.3116 33.1436C17.5947 33.1436 15.1041 32.2757 13.0664 30.804C12.9531 30.8795 12.8399 30.9172 12.689 30.8418C12.7645 30.804 12.8399 30.7286 12.9154 30.7286C11.4814 29.6719 10.3116 28.3135 9.44371 26.7663L9.40597 26.804C9.3305 26.6908 9.25503 26.5776 9.29277 26.4644C8.38711 24.7286 7.8588 22.7663 7.8588 20.6908C7.8588 17.5965 8.99088 14.7286 10.9154 12.5399C10.8022 12.5021 10.7267 12.3512 10.8777 12.1625C10.9909 12.1248 11.1041 12.1625 11.1796 12.238C11.4814 11.8984 11.8211 11.5965 12.1607 11.2946C12.1607 11.2946 12.123 11.2569 12.123 11.2191C12.1984 11.1059 12.2739 11.1059 12.3494 11.1059C13.406 10.2003 14.6513 9.48327 15.972 8.9927C15.8965 8.8795 15.9343 8.84176 16.0475 8.76629C16.0852 8.80402 16.1607 8.80402 16.1984 8.84176C16.1984 8.8795 16.1607 8.8795 16.1607 8.91723C17.4437 8.4644 18.8399 8.20025 20.2739 8.20025C21.1796 8.20025 22.0475 8.31346 22.8777 8.4644C22.8399 8.35119 22.9154 8.23799 22.9909 8.08704C22.123 7.89836 21.2173 7.78516 20.2739 7.78516C17.406 7.78516 14.7267 8.72855 12.6135 10.3512C12.6135 10.3889 12.5758 10.4267 12.5758 10.4267C12.5758 10.4267 12.538 10.4267 12.538 10.3889C11.6701 11.0304 10.8777 11.8229 10.2362 12.6531C10.2739 12.6908 10.3116 12.6908 10.3494 12.6908C10.3116 12.8418 10.1984 12.804 10.1607 12.9172C10.123 12.8795 10.123 12.8795 10.0852 12.8418C8.76446 14.5776 7.89654 16.6531 7.59465 18.9172C7.63239 18.9927 7.63239 19.0682 7.55692 19.1436C7.51918 19.6342 7.48145 20.087 7.48145 20.5776C7.48145 22.7663 8.00975 24.804 8.99088 26.6153C9.17956 26.6908 9.36824 26.804 9.51918 26.8795C9.44371 27.1059 9.48144 27.2569 9.48144 27.4833C9.78333 27.9738 10.1607 28.4644 10.538 28.9172C10.6135 28.804 10.7267 28.6908 10.8777 28.7663C10.8399 28.9172 10.7645 29.0304 10.6513 29.0304C12.8777 31.5965 16.123 33.2569 19.7456 33.4078C19.7079 33.3323 19.7079 33.2569 19.7456 33.1814C19.8588 33.2946 20.123 33.3323 20.2362 33.4078C20.2739 33.4078 20.2739 33.4078 20.3116 33.4078C22.1607 33.521 23.8965 33.1059 25.4814 32.4267C25.4437 32.4267 25.4437 32.4267 25.4814 32.4267ZM8.04748 24.087C7.59465 23.7474 8.53805 23.8606 8.04748 24.087V24.087Z" fill="#F5F5F5"/>
<path d="M26.4624 9.86022C26.4624 9.78475 26.4624 9.70928 26.4246 9.63381C26.4624 9.5206 26.5756 9.5206 26.6888 9.55834C25.5944 8.91683 24.4246 8.464 23.1416 8.16211C23.2548 8.23758 23.2171 8.38852 23.1416 8.53947C24.3114 8.84135 25.4435 9.25645 26.4624 9.86022Z" fill="#F5F5F5"/>
<path d="M32.9529 22.8799C33.0661 22.163 33.1416 21.446 33.1416 20.6913C33.1416 20.6158 33.1416 20.5403 33.1416 20.4648C33.1038 20.6913 32.9152 20.5403 32.8397 20.6913C32.802 20.6913 32.802 20.6535 32.802 20.6535C32.802 20.6913 32.802 20.6913 32.802 20.729C32.802 21.4837 32.7265 22.2007 32.6133 22.8799C32.6888 22.8045 32.802 22.8422 32.9529 22.8799Z" fill="#F5F5F5"/>
<path d="M36.5372 22.7661C36.3485 22.6152 36.4617 22.4642 36.6881 22.5019C36.7259 22.0114 36.7636 21.5208 36.8013 20.9925C36.8391 19.6718 36.6881 18.351 36.424 17.1057C36.3862 17.068 36.3862 17.0302 36.3485 16.9925L36.3862 16.9548C36.273 16.4265 36.1221 15.8982 35.9334 15.4076C35.8579 15.4453 35.707 15.3321 35.707 15.2567C35.707 15.1812 35.7825 15.1435 35.8202 15.1435C35.0655 12.9925 33.8202 10.9548 32.1221 9.21893C30.7636 7.78497 29.1787 6.69063 27.5183 5.86044C27.4051 5.93591 27.1787 5.78496 27.0655 5.97364C26.9145 5.8227 26.9145 5.67176 27.0278 5.59629C21.707 3.21893 15.3674 3.74723 10.4994 7.25666C10.5372 7.2944 10.5372 7.36987 10.6127 7.40761C10.5749 7.48308 10.4994 7.44534 10.4617 7.52081C10.3862 7.44534 10.3862 7.40761 10.3862 7.33213C9.78247 7.78497 9.21643 8.2378 8.65039 8.7661L8.91454 9.03025C10.0089 7.97364 11.2164 7.10572 12.4617 6.42647C12.3862 6.38874 12.3108 6.31327 12.273 6.2378C12.3862 6.08685 12.6127 6.16232 12.7259 6.27553C15.3674 4.91704 18.3485 4.31327 21.2542 4.50195C21.2542 4.42647 21.2542 4.31327 21.2164 4.2378C21.3674 4.08685 21.5183 4.42647 21.6315 4.53968C22.273 4.61515 22.9145 4.69063 23.5561 4.80383C23.5938 4.80383 23.5938 4.7661 23.6315 4.7661C23.6693 4.80383 23.7447 4.80383 23.7825 4.84157C26.7636 5.52081 29.5938 7.03025 31.8579 9.40761C32.8391 10.4265 33.6693 11.5586 34.3485 12.7661C34.3108 12.6152 34.8768 12.6906 34.4617 12.917C34.424 12.8793 34.3862 12.8416 34.3862 12.8416C34.7636 13.5586 35.1032 14.2755 35.4051 15.0302C35.4051 15.0302 35.4051 15.0302 35.4428 15.0302C35.4428 15.068 35.4428 15.1057 35.4428 15.1435C36.1221 16.9925 36.4617 18.9548 36.424 20.9925C36.424 21.068 36.424 21.1435 36.424 21.2189C36.424 21.2189 36.4617 21.2189 36.4617 21.2567C36.4617 21.2944 36.424 21.3321 36.424 21.3699C36.2353 25.5963 34.4994 29.5208 31.4428 32.4265L31.707 32.6906C34.4994 30.0114 36.2353 26.5019 36.6881 22.6906C36.6127 22.7284 36.5749 22.7284 36.5372 22.7661ZM28.6881 6.84157C28.6504 6.80383 28.5749 6.80383 28.5372 6.7661C28.5749 6.72836 28.5749 6.65289 28.6127 6.61515C28.6504 6.65289 28.7259 6.65289 28.7636 6.69063C28.7636 6.72836 28.7259 6.80383 28.6881 6.84157ZM36.424 18.7284C36.3485 18.6529 36.3108 18.5397 36.3862 18.3887C36.7259 18.4642 36.6127 18.6529 36.424 18.7284Z" fill="#42795C"/>
<path d="M15.8214 15.6346C15.8214 15.6724 15.8214 15.7478 15.7837 15.8233C15.7459 15.7856 15.7082 15.7856 15.7082 15.7478C14.3875 16.9931 13.5195 18.7667 13.5195 20.729C13.5195 23.295 14.9535 25.5214 17.0667 26.6912C17.1799 26.6158 17.4063 26.8422 17.4818 26.6912C17.5573 26.7667 17.5195 26.8422 17.4818 26.9177C18.3497 27.3328 19.2931 27.5592 20.312 27.5592C22.1233 27.5592 23.7837 26.8422 25.029 25.6346C24.9158 25.5592 24.8025 25.4837 24.7271 25.4082C23.595 26.5026 22.0478 27.1441 20.3497 27.1441C18.2742 27.1441 16.3875 26.1252 15.2176 24.578C15.1799 24.6158 15.1422 24.6535 15.0667 24.6912C14.9535 24.578 14.9158 24.4271 14.9912 24.2384C14.312 23.2195 13.9346 22.012 13.9346 20.729C13.9346 17.1818 16.8025 14.3139 20.3497 14.3139C23.8969 14.3139 26.7648 17.1818 26.7648 20.729C26.7648 22.4271 26.0856 24.012 24.9912 25.1441C25.1044 25.2195 25.2176 25.2573 25.3309 25.3327C26.4629 24.1252 27.1422 22.5026 27.1422 20.729C27.1422 16.9931 24.0856 13.9365 20.3497 13.9365C18.6139 13.9365 17.029 14.578 15.8214 15.6346Z" fill="#FFF6F1"/>
</svg>
