<svg width="48" height="49" viewBox="0 0 48 49" fill="none" xmlns="http://www.w3.org/2000/svg">
<path d="M24.0547 0.540039H23.9453C10.7207 0.540039 0 11.2607 0 24.4854V24.5947C0 37.8193 10.7207 48.54 23.9453 48.54H24.0547C37.2793 48.54 48 37.8193 48 24.5947V24.4854C48 11.2607 37.2793 0.540039 24.0547 0.540039Z" fill="#84F7A0" fill-opacity="0.1"/>
<path d="M23.9453 0.790039H24.0547C37.1412 0.790039 47.75 11.3988 47.75 24.4854V24.5947C47.75 37.6813 37.1412 48.29 24.0547 48.29H23.9453C10.8588 48.29 0.25 37.6813 0.25 24.5947V24.4854C0.25 11.3988 10.8588 0.790039 23.9453 0.790039Z" stroke="#878787" stroke-opacity="0.3" stroke-width="0.5"/>
<path d="M28.7955 14.9404H19.2053C16.5558 14.9404 14.4004 17.0958 14.4004 19.7453V28.519C14.4004 31.1685 16.5558 33.3239 19.2053 33.3239H28.7955C31.445 33.3239 33.6004 31.1685 33.6004 28.519V19.7453C33.6004 17.0958 31.445 14.9404 28.7955 14.9404ZM16.0954 19.7453C16.0954 18.0308 17.4907 16.6354 19.2053 16.6354H28.7955C30.5101 16.6354 31.9054 18.0308 31.9054 19.7453V28.519C31.9054 30.2335 30.5101 31.6289 28.7955 31.6289H19.2053C17.4907 31.6289 16.0954 30.2335 16.0954 28.519V19.7453Z" fill="#C4C4C4"/>
<path d="M23.9996 28.5979C26.4634 28.5979 28.469 26.5934 28.469 24.1285C28.469 21.6637 26.4645 19.6592 23.9996 19.6592C21.5348 19.6592 19.5303 21.6637 19.5303 24.1285C19.5303 26.5934 21.5348 28.5979 23.9996 28.5979ZM23.9996 21.3553C25.5296 21.3553 26.774 22.5997 26.774 24.1296C26.774 25.6596 25.5296 26.904 23.9996 26.904C22.4697 26.904 21.2253 25.6596 21.2253 24.1296C21.2253 22.5997 22.4697 21.3553 23.9996 21.3553Z" fill="#C4C4C4"/>
<path d="M28.8858 20.3847C29.5493 20.3847 30.0901 19.8449 30.0901 19.1802C30.0901 18.5154 29.5504 17.9756 28.8858 17.9756C28.2213 17.9756 27.6816 18.5154 27.6816 19.1802C27.6816 19.8449 28.2213 20.3847 28.8858 20.3847Z" fill="#C4C4C4"/>
</svg>
