<svg width="48" height="49" viewBox="0 0 48 49" fill="none" xmlns="http://www.w3.org/2000/svg">
<path d="M24.0547 0.540039H23.9453C10.7207 0.540039 0 11.2607 0 24.4854V24.5947C0 37.8193 10.7207 48.54 23.9453 48.54H24.0547C37.2793 48.54 48 37.8193 48 24.5947V24.4854C48 11.2607 37.2793 0.540039 24.0547 0.540039Z" fill="#84F7A0" fill-opacity="0.1"/>
<path d="M23.9453 0.790039H24.0547C37.1412 0.790039 47.75 11.3988 47.75 24.4854V24.5947C47.75 37.6813 37.1412 48.29 24.0547 48.29H23.9453C10.8588 48.29 0.25 37.6813 0.25 24.5947V24.4854C0.25 11.3988 10.8588 0.790039 23.9453 0.790039Z" stroke="#878787" stroke-opacity="0.3" stroke-width="0.5"/>
<path d="M16.4204 23.5759C16.4571 23.5575 16.4939 23.54 16.5297 23.5235C17.1525 23.2351 17.7836 22.965 18.4137 22.6949C18.4477 22.6949 18.5046 22.6554 18.5368 22.6426C18.5855 22.6215 18.6342 22.6012 18.6829 22.5801C18.7766 22.5397 18.8703 22.5002 18.963 22.4598C19.1504 22.3799 19.3369 22.2999 19.5243 22.22L20.6459 21.7396C21.3936 21.4199 22.1423 21.0993 22.89 20.7797C23.6378 20.46 24.3864 20.1394 25.1341 19.8197C25.8819 19.5001 26.6305 19.1795 27.3782 18.8598C28.126 18.5402 28.8747 18.2196 29.6224 17.8999C29.7887 17.8282 29.9687 17.7217 30.1469 17.6904C30.2966 17.6638 30.4427 17.6124 30.5933 17.5839C30.879 17.5297 31.1941 17.5077 31.4678 17.6262C31.5624 17.6675 31.6497 17.7254 31.7223 17.7979C32.0695 18.1415 32.0208 18.7055 31.9473 19.1887C31.4357 22.5562 30.924 25.9247 30.4114 29.2923C30.3416 29.7543 30.2461 30.2614 29.8814 30.5535C29.5728 30.8006 29.1337 30.8282 28.7525 30.7234C28.3712 30.6178 28.035 30.3964 27.7053 30.1787C26.3375 29.273 24.9688 28.3672 23.601 27.4615C23.2758 27.2466 22.9139 26.9655 22.9176 26.5751C22.9194 26.3399 23.06 26.1305 23.2033 25.944C24.3919 24.3934 26.1069 23.3279 27.3828 21.8489C27.5629 21.6404 27.7044 21.2638 27.4573 21.1434C27.3103 21.0718 27.1412 21.1692 27.0071 21.2619C25.3206 22.4331 23.635 23.6053 21.9485 24.7765C21.3982 25.1586 20.8213 25.5518 20.1581 25.6455C19.5647 25.73 18.9676 25.5646 18.3935 25.3956C17.9122 25.2541 17.4317 25.109 16.9531 24.9593C16.6987 24.8803 16.436 24.7948 16.2394 24.6157C16.0428 24.4366 15.9298 24.1353 16.0483 23.8965C16.1227 23.7467 16.267 23.6521 16.4185 23.575L16.4204 23.5759Z" fill="#C4C4C4"/>
</svg>
