<svg width="635" height="121" viewBox="0 0 635 121" fill="none" xmlns="http://www.w3.org/2000/svg">
<path fill-rule="evenodd" clip-rule="evenodd" d="M54.7697 5.00604V9.51215H33.8468C22.2768 9.51215 12.4389 9.78944 11.9539 10.0667C11.3304 10.4827 11.1225 12.4237 11.2611 17.2071L11.4689 23.7235L33.5696 23.9315L55.6704 24.0702L55.2547 26.3579C55.0468 27.6058 54.4233 29.8241 53.7997 31.2799L52.6913 33.8449L29.3435 33.6369C3.91727 33.3596 2.94733 33.221 1.00746 29.5468C-0.239605 26.9818 -0.378165 7.7097 0.868897 4.93674C1.35387 3.82755 2.94733 2.51039 4.54079 1.81715C7.03492 0.638641 9.52905 0.5 31.0755 0.5H54.7697V5.00604ZM70.7044 11.2452C70.7044 17.1378 70.9815 21.9905 71.3279 21.9905C71.6743 21.9905 80.0574 17.1378 89.9646 11.2452L107.978 0.5H113.589H119.201L119.063 16.9298L118.855 33.429H113.659H108.463L108.255 22.4758C108.186 16.5139 107.978 11.5919 107.77 11.5919C107.631 11.5919 99.1097 16.5832 88.8561 22.6837L70.1501 33.8449L65.0926 33.6369L59.9658 33.429L59.7579 17.831C59.6887 9.30418 59.7579 1.88651 59.8965 1.40125C60.1736 0.777328 61.9056 0.5 65.5083 0.5H70.7044V11.2452ZM183.494 16.9298L183.286 33.429H178.09H172.894L172.548 21.6438L172.201 9.85875L157.237 9.65076L142.272 9.51215L141.856 16.2366C141.233 26.9125 138.946 31.6266 133.82 33.0824C130.356 34.0529 126.337 33.9142 125.644 32.8744C124.744 31.4186 122.804 24.8327 123.22 24.4168C123.427 24.2088 124.952 24.0702 126.614 24.0702C130.633 24.0702 130.979 23.0303 130.979 10.9679C130.979 5.69929 131.187 1.19325 131.464 0.985275C131.672 0.707977 143.519 0.5 157.791 0.5H183.633L183.494 16.9298ZM200.26 11.2452C200.26 17.1378 200.468 21.9905 200.815 21.9905C201.092 21.9905 209.405 17.1378 219.313 11.2452L237.326 0.5L242.868 0.63868L248.411 0.846596V17.1378V33.429L243.492 33.6369C240.028 33.7756 238.365 33.5676 237.811 32.8744C237.326 32.3198 236.91 28.0217 236.841 21.8518L236.633 11.7305L218.066 22.7531L199.498 33.8449L194.51 33.6369L189.522 33.429L189.314 16.9298L189.175 0.5H194.718H200.26V11.2452ZM54.7004 45.0061C54.7004 45.4913 54.1462 47.4324 53.5226 49.3735L52.3448 52.8397L31.4219 53.0476L10.4297 53.1863V54.9194V56.6525H29.8977C51.7906 56.6525 53.3841 56.9298 55.1854 61.2279C56.4324 64.2089 56.4324 69.2002 55.1854 72.2504C53.3148 76.6872 52.7605 76.7565 25.3252 76.7565H0.730321V60.4654V44.1742H27.75C48.9501 44.1742 54.7697 44.3821 54.7004 45.0061ZM113.243 46.0459C112.966 47.1551 112.412 49.0962 111.927 50.4133L111.095 52.8397L90.5188 53.0476L70.0116 53.1863V54.9194V56.6525H85.9463H101.881V60.4654V64.2782H85.9463H70.0116V66.0113V67.7444L91.3502 67.883L112.62 68.091L112.827 72.3891L113.035 76.7565H86.6391H60.3122V60.4654V44.1742H86.9855H113.659L113.243 46.0459ZM165.62 45.422C169.638 47.4324 170.954 54.7808 168.045 58.9402C167.144 60.188 167.144 60.5346 168.183 61.6438C169.569 63.169 170.192 69.4774 169.153 72.0424C168.737 73.1516 167.421 74.6074 166.174 75.37C164.026 76.6872 162.641 76.7565 140.055 76.7565H116.291L116.638 74.7461C116.915 73.5676 117.538 71.5572 118.093 70.24L119.132 67.7444H139.224C150.516 67.7444 159.454 67.467 159.661 67.1204C159.939 66.7738 159.869 66.0113 159.661 65.3874C159.315 64.4168 157.306 64.2782 144.42 64.2782H129.593V60.4654V56.6525L144.35 56.5139L144.378 56.5135C158.969 56.3059 159.038 56.3049 159.246 54.7808L159.454 53.1863L138.808 53.0476L118.162 52.8397L117.954 49.4428C117.816 47.571 117.885 45.63 118.093 45.1447C118.37 44.3128 122.457 44.1742 140.817 44.1742C160.701 44.1742 163.472 44.3128 165.62 45.422ZM231.783 60.4654V76.4099H226.241H220.698L220.49 64.7634L220.352 53.1863L202.824 53.3249L185.365 53.5329L185.157 65.1101L185.018 76.7565H179.476H173.933V60.4654V44.1742L202.893 44.3129L231.783 44.5208V60.4654ZM248.064 60.4654V76.8258L242.73 76.6179L237.326 76.4099L237.118 61.1586C237.049 52.7704 237.118 45.5607 237.256 45.0754C237.534 44.4515 239.266 44.1742 242.868 44.1742H248.064V60.4654ZM312.496 60.4654V76.7565H306.953H301.411V64.9714V53.1863L286.377 53.3249L271.274 53.5329L270.858 60.4654C270.373 68.3683 268.987 72.4584 265.939 75.0234C264.207 76.4792 263.168 76.7565 259.219 76.7565H254.507L253.33 72.7357C252.706 70.5173 252.221 68.507 252.221 68.2297C252.221 67.9524 253.607 67.7444 255.339 67.7444C259.634 67.7444 259.981 66.7045 260.396 54.4342L260.743 44.1742H286.585H312.496V60.4654ZM376.304 46.8085L378.313 49.0269V60.3267C378.313 61.1778 378.317 61.9849 378.321 62.7503C378.349 68.3437 378.365 71.7101 376.725 73.7338C374.246 76.7929 367.981 76.7838 352.245 76.7608C350.807 76.7587 349.291 76.7565 347.691 76.7565C326.421 76.7565 323.65 76.6179 321.502 75.5087C318.177 73.8449 317.415 71.2105 317.415 60.604C317.346 50.4133 318.108 47.7097 321.641 45.5607C323.858 44.1742 324.828 44.1742 349.076 44.3129L374.295 44.5208L376.304 46.8085ZM440.597 45.0061C440.597 45.4913 440.043 47.4324 439.35 49.3735L438.103 52.8397L426.949 53.0476L415.725 53.1863V64.9714V76.7565H410.182H404.64V64.9714V53.1863H392.862H381.084V48.6803V44.1742H410.875C434.292 44.1742 440.666 44.3821 440.597 45.0061ZM454.384 50.2747L454.592 55.9593L472.051 55.8206L489.509 55.6126L489.717 49.8588L489.925 44.1742H495.398H500.941V60.4654V76.7565H495.398H489.925L489.717 71.0026L489.509 65.3181L472.051 65.1101L454.592 64.9714L454.384 70.656L454.176 76.4099H448.634H443.091L442.883 61.1586C442.814 52.7704 442.883 45.5606 443.091 45.0061C443.299 44.3821 444.823 44.1742 448.772 44.3129L454.176 44.5208L454.384 50.2747ZM517.568 54.9888C517.568 60.9506 517.846 65.6646 518.123 65.526C518.469 65.3873 526.714 60.5347 536.413 54.7115L554.08 44.1742H559.691H565.372V60.4654V76.7565H559.83H554.287V66.0113C554.287 60.1187 554.149 55.266 553.941 55.266C553.733 55.266 545.489 60.1187 535.581 66.0113L517.638 76.7565H512.095H506.483V60.4654V44.1742H512.026H517.568V54.9888ZM595.648 47.7097L602.161 51.1759L608.673 47.6404L615.255 44.1049L625.093 44.3129L635 44.5208L624.123 50.0667C618.095 53.117 613.176 55.7513 613.176 55.9593C613.176 56.1673 617.888 58.6629 623.569 61.5052L633.961 66.6352V71.6958C633.961 74.4688 633.822 76.7565 633.614 76.7565C633.44 76.7565 628.401 74.2738 621.717 70.9809L621.714 70.9793C620.423 70.3432 619.07 69.6768 617.68 68.9922L602.091 61.1586L586.434 68.9922C577.843 73.2903 570.568 76.6178 570.153 76.4099C569.806 76.1326 569.529 73.9835 569.529 71.4879V67.0511L580.268 61.7132C586.157 58.7323 591.006 56.1673 591.006 55.9593C591.006 55.7513 586.295 53.2556 580.545 50.4133C574.795 47.5711 569.945 45.0061 569.806 44.6594C569.599 44.3821 573.894 44.1742 579.298 44.1742H589.136L595.648 47.7097ZM54.4233 92.0078V96.5139L32.9461 96.8605L11.4689 97.2071L11.2611 103.724C11.1225 108.507 11.3304 110.448 11.9539 110.864C12.4389 111.141 22.4154 111.419 34.1932 111.419C49.1579 111.419 55.4625 111.627 55.4625 112.181C55.4625 112.597 54.9776 114.607 54.354 116.687L53.3148 120.431H30.1056C28.6408 120.431 27.2472 120.432 25.9214 120.434C10.3269 120.454 4.10134 120.462 1.63028 117.42C-0.0117127 115.399 0.00407481 112.031 0.0303529 106.425C0.0338435 105.68 0.0375192 104.896 0.0375192 104.07V104.07C0.0375192 93.0477 0.0375192 92.7703 1.76954 90.6906C2.94732 89.3735 4.61008 88.4029 6.48067 87.9176C8.07414 87.571 19.5055 87.3631 31.9069 87.4324L54.4233 87.5017V92.0078ZM70.5658 97.5537C70.6351 103.1 70.8429 107.952 71.0508 108.438C71.1893 108.923 78.3946 105.041 89.8953 98.1776L108.463 87.1551L113.659 87.2938L118.855 87.5017L119.063 103.932L119.201 120.431H113.659H108.116V109.685C108.116 103.377 107.839 98.9402 107.493 98.9402C107.077 98.9402 98.694 103.793 88.7175 109.685L70.6351 120.5L65.3004 120.292L59.9658 120.084L59.7579 104.486C59.6887 95.9592 59.7579 88.5416 59.9658 87.987C60.1736 87.3631 61.6285 87.1551 65.3004 87.2938L70.358 87.5017L70.5658 97.5537ZM177.259 92.1464L177.467 96.8605L156.475 96.9991L135.482 97.2071L135.275 103.308C135.136 107.259 135.344 109.824 135.898 110.448C136.522 111.211 140.678 111.419 158.484 111.419C175.665 111.419 180.238 111.627 180.03 112.25C179.822 112.736 179.13 114.815 178.506 116.756L177.259 120.431H154.673C140.886 120.431 130.979 120.153 129.386 119.668C124.813 118.42 124.051 116.271 124.051 104.347C124.051 93.2556 124.467 91.3146 127.169 89.5122C130.286 87.5018 132.919 87.2937 155.227 87.3631L177.051 87.5017L177.259 92.1464ZM239.958 87.571C240.443 88.0563 238.504 94.7807 237.534 95.9592C236.979 96.6525 233.862 96.8605 226.171 96.8605H215.502L215.364 108.438L215.156 120.084L209.821 120.292L204.417 120.5V108.646V96.8605H192.639H180.862V92.4931C180.862 90.0667 181.069 87.8483 181.347 87.6404C181.901 87.0164 239.335 87.0165 239.958 87.571ZM295.453 87.779C295.661 88.1257 295.245 90.0667 294.552 92.0771L293.305 95.8206L272.936 96.1672L252.568 96.5139V98.2469V99.9801L268.364 100.188L284.091 100.327V104.14V107.952H268.156H252.221V109.685V111.419H273.698H295.176V115.925V120.431H268.849H242.522V104.278C242.522 95.3353 242.73 87.8483 243.007 87.6404C243.7 86.9471 295.037 87.0858 295.453 87.779ZM322.542 94.7808C329.123 98.9402 334.804 102.406 335.22 102.406C335.636 102.406 341.317 98.9402 347.899 94.7808L359.884 87.0858L365.08 87.2938L370.346 87.5017L370.554 103.932L370.692 120.431H365.15H359.607V109.616C359.607 99.6334 359.538 98.8016 358.429 99.2175C357.737 99.4948 352.333 102.822 346.305 106.635C340.347 110.379 335.22 113.498 334.943 113.498C334.666 113.498 329.262 110.24 322.888 106.219C316.583 102.198 311.18 98.9402 310.902 98.9402C310.625 98.9402 310.417 103.793 310.417 109.685V120.431H304.875H299.332V104.278C299.332 95.3353 299.54 87.8483 299.817 87.6404C300.025 87.3631 302.589 87.1551 305.429 87.1551H310.625L322.542 94.7808ZM10.4297 66.0112V67.7443H28.0964H45.7632V66.0112V64.2781H28.0964H10.4297V66.0112ZM329.331 66.5656C328.223 65.1098 328.153 56.4443 329.123 54.5032C329.816 53.186 330.647 53.186 348.383 53.3247L366.882 53.5327V60.4651V67.3975L348.522 67.6054C331.895 67.7441 330.093 67.6748 329.331 66.5656Z" fill="white"/>
</svg>
