<svg width="48" height="49" viewBox="0 0 48 49" fill="none" xmlns="http://www.w3.org/2000/svg">
<path d="M48 24.54C48 11.2852 37.2549 0.540039 24 0.540039C10.7452 0.540039 0 11.2852 0 24.54C0 37.7949 10.7452 48.54 24 48.54C37.2549 48.54 48 37.7949 48 24.54Z" fill="#84F7A0" fill-opacity="0.1"/>
<path d="M24 0.790039C37.1168 0.790039 47.75 11.4233 47.75 24.54C47.75 37.6568 37.1168 48.29 24 48.29C10.8833 48.29 0.25 37.6568 0.25 24.54C0.25 11.4233 10.8833 0.790039 24 0.790039Z" stroke="#878787" stroke-opacity="0.3" stroke-width="0.5"/>
<path d="M31.8636 21.5306C31.7654 20.582 31.5539 19.5334 30.7756 18.9823C30.1727 18.555 29.3803 18.5392 28.6406 18.5401C27.0769 18.5401 25.5123 18.5427 23.9486 18.5436C22.4446 18.5453 20.9406 18.5462 19.4366 18.548C18.8083 18.548 18.1975 18.4997 17.614 18.7717C17.113 19.0051 16.7207 19.4492 16.4847 19.9432C16.1574 20.6303 16.0889 21.4086 16.0494 22.1685C15.9766 23.5523 15.9845 24.9396 16.0714 26.3226C16.1354 27.3317 16.2978 28.447 17.0779 29.0902C17.7693 29.6597 18.7451 29.6878 19.6419 29.6886C22.4885 29.6913 25.336 29.6939 28.1834 29.6956C28.5485 29.6965 28.9293 29.6895 29.3014 29.6491C30.0332 29.5702 30.7308 29.3604 31.2011 28.8182C31.6759 28.2715 31.7978 27.5107 31.8698 26.7903C32.0453 25.0423 32.0435 23.2777 31.8636 21.5306ZM22.3025 26.5683V21.6675L26.546 24.1174L22.3025 26.5683Z" fill="#C4C4C4"/>
</svg>
